<svg viewBox="0 0 400 300" xmlns="http://www.w3.org/2000/svg">
  <rect width="400" height="300" fill="#0F1B2D"/>
  <rect width="400" height="300" fill="url(#g1)"/>
  <defs>
    <radialGradient id="g1" cx="50%" cy="45%" r="70%">
      <stop offset="0%" stop-color="#1E3B6E"/>
      <stop offset="100%" stop-color="#0F1B2D"/>
    </radialGradient>
  </defs>
  <circle cx="200" cy="150" r="86" fill="none" stroke="#3A5A94" stroke-width="1.5" stroke-dasharray="4 6"/>
  <g stroke="#5C7FBE" stroke-width="1.5">
    <line x1="200" y1="150" x2="110" y2="95"/>
    <line x1="200" y1="150" x2="290" y2="95"/>
    <line x1="200" y1="150" x2="120" y2="215"/>
    <line x1="200" y1="150" x2="285" y2="210"/>
    <line x1="200" y1="150" x2="200" y2="70"/>
  </g>
  <circle cx="200" cy="150" r="34" fill="#2557D6"/>
  <text x="200" y="157" font-family="Sora, sans-serif" font-size="17" font-weight="700" fill="#ffffff" text-anchor="middle">CRM</text>

  <g fill="#ffffff">
    <circle cx="110" cy="95" r="16" fill="#1B2C47" stroke="#3A5A94"/>
    <circle cx="290" cy="95" r="16" fill="#1B2C47" stroke="#3A5A94"/>
    <circle cx="120" cy="215" r="16" fill="#1B2C47" stroke="#3A5A94"/>
    <circle cx="285" cy="210" r="16" fill="#1B2C47" stroke="#3A5A94"/>
    <circle cx="200" cy="70" r="16" fill="#1B2C47" stroke="#3A5A94"/>
  </g>
  <g fill="#8EA9DE">
    <circle cx="110" cy="90" r="5"/><rect x="102" y="97" width="16" height="8" rx="4"/>
    <circle cx="290" cy="90" r="5"/><rect x="282" y="97" width="16" height="8" rx="4"/>
    <circle cx="120" cy="210" r="5"/><rect x="112" y="217" width="16" height="8" rx="4"/>
    <circle cx="285" cy="205" r="5"/><rect x="277" y="212" width="16" height="8" rx="4"/>
    <circle cx="200" cy="65" r="5"/><rect x="192" y="72" width="16" height="8" rx="4"/>
  </g>
</svg>
