<svg viewBox="0 0 1200 420" xmlns="http://www.w3.org/2000/svg">
  <rect width="1200" height="420" fill="#FFF8E9"/>
  <rect x="330" y="90" width="280" height="200" rx="10" fill="#ffffff" stroke="#E3E8F0"/>
  <rect x="360" y="120" width="150" height="16" rx="5" fill="#FBBC05"/>
  <rect x="360" y="155" width="220" height="10" rx="4" fill="#E3E8F0"/>
  <rect x="360" y="178" width="220" height="10" rx="4" fill="#E3E8F0"/>
  <rect x="360" y="201" width="140" height="10" rx="4" fill="#E3E8F0"/>
  <rect x="360" y="234" width="100" height="38" rx="6" fill="#F5D67A"/>

  <rect x="560" y="150" width="280" height="200" rx="10" fill="#ffffff" stroke="#E3E8F0" transform="rotate(5 700 250)"/>
  <g transform="rotate(5 700 250)">
    <rect x="590" y="180" width="150" height="16" rx="5" fill="#4285F4"/>
    <rect x="590" y="215" width="220" height="10" rx="4" fill="#E3E8F0"/>
    <rect x="590" y="238" width="220" height="10" rx="4" fill="#E3E8F0"/>
    <rect x="590" y="285" width="100" height="38" rx="6" fill="#AEC7F6"/>
  </g>

  <circle cx="960" cy="130" r="34" fill="#2557D6"/>
  <path d="M944 130l10 10 20-22" stroke="#ffffff" stroke-width="4" fill="none" stroke-linecap="round" stroke-linejoin="round"/>
</svg>
