<svg viewBox="0 0 400 300" xmlns="http://www.w3.org/2000/svg">
  <rect width="400" height="300" fill="#FFF8E9"/>
  <rect x="90" y="60" width="160" height="120" rx="6" fill="#ffffff" stroke="#E3E8F0"/>
  <rect x="105" y="78" width="90" height="10" rx="3" fill="#FBBC05"/>
  <rect x="105" y="98" width="130" height="6" rx="3" fill="#E3E8F0"/>
  <rect x="105" y="112" width="130" height="6" rx="3" fill="#E3E8F0"/>
  <rect x="105" y="126" width="80" height="6" rx="3" fill="#E3E8F0"/>
  <rect x="105" y="146" width="60" height="26" rx="4" fill="#F5D67A"/>

  <rect x="160" y="150" width="160" height="120" rx="6" fill="#ffffff" stroke="#E3E8F0" transform="rotate(6 240 210)"/>
  <g transform="rotate(6 240 210)">
    <rect x="175" y="168" width="90" height="10" rx="3" fill="#4285F4"/>
    <rect x="175" y="188" width="130" height="6" rx="3" fill="#E3E8F0"/>
    <rect x="175" y="202" width="130" height="6" rx="3" fill="#E3E8F0"/>
    <rect x="175" y="230" width="60" height="26" rx="4" fill="#AEC7F6"/>
  </g>

  <circle cx="330" cy="90" r="20" fill="#2557D6"/>
  <path d="M322 90l6 6 12-13" stroke="#ffffff" stroke-width="2.4" fill="none" stroke-linecap="round" stroke-linejoin="round"/>
</svg>
